<mxfile host="app.diagrams.net" agent="Mozilla/5.0 (X11; Linux x86_64) AppleWebKit/537.36 (KHTML, like Gecko) Chrome/138.0.0.0 Safari/537.36" version="28.0.7">
  <diagram name="Page-1" id="NRLyzxKe6yIAI5YadwPF">
    <mxGraphModel dx="1678" dy="893" grid="1" gridSize="10" guides="1" tooltips="1" connect="1" arrows="1" fold="1" page="1" pageScale="1" pageWidth="827" pageHeight="1169" math="0" shadow="0">
      <root>
        <mxCell id="0" />
        <mxCell id="1" parent="0" />
        <mxCell id="hFevKYK4maq2fZfGWqbk-14" value="" style="edgeStyle=orthogonalEdgeStyle;rounded=0;orthogonalLoop=1;jettySize=auto;html=1;" edge="1" parent="1" source="hFevKYK4maq2fZfGWqbk-3" target="hFevKYK4maq2fZfGWqbk-10">
          <mxGeometry relative="1" as="geometry" />
        </mxCell>
        <mxCell id="hFevKYK4maq2fZfGWqbk-38" style="edgeStyle=orthogonalEdgeStyle;curved=1;rounded=0;orthogonalLoop=1;jettySize=auto;html=1;" edge="1" parent="1" source="hFevKYK4maq2fZfGWqbk-3" target="hFevKYK4maq2fZfGWqbk-39">
          <mxGeometry relative="1" as="geometry">
            <mxPoint x="720" y="280" as="targetPoint" />
          </mxGeometry>
        </mxCell>
        <mxCell id="hFevKYK4maq2fZfGWqbk-3" value="SIGEST&amp;nbsp;&lt;div&gt;User&lt;/div&gt;" style="html=1;whiteSpace=wrap;align=center;" vertex="1" parent="1">
          <mxGeometry x="340" y="300" width="110" height="50" as="geometry" />
        </mxCell>
        <mxCell id="hFevKYK4maq2fZfGWqbk-8" value="&lt;h1 style=&quot;text-wrap-mode: nowrap;&quot;&gt;&lt;span style=&quot;text-wrap-mode: nowrap;&quot;&gt;ESTRUTURA INICIAL DO SIGEST&amp;nbsp;&lt;br&gt;&lt;/span&gt;NO LARAVEL API&lt;/h1&gt;" style="text;html=1;align=center;verticalAlign=middle;whiteSpace=wrap;rounded=0;" vertex="1" parent="1">
          <mxGeometry x="200" y="180" width="420" height="80" as="geometry" />
        </mxCell>
        <mxCell id="hFevKYK4maq2fZfGWqbk-16" value="" style="edgeStyle=orthogonalEdgeStyle;rounded=0;orthogonalLoop=1;jettySize=auto;html=1;" edge="1" parent="1" source="hFevKYK4maq2fZfGWqbk-10" target="hFevKYK4maq2fZfGWqbk-15">
          <mxGeometry relative="1" as="geometry" />
        </mxCell>
        <mxCell id="hFevKYK4maq2fZfGWqbk-10" value="" style="shape=image;verticalLabelPosition=bottom;labelBackgroundColor=default;verticalAlign=top;aspect=fixed;imageAspect=0;image=data:image/png,iVBORw0KGgoAAAANSUhEUgAAArwAAAGOCAYAAAB14NB4AAAgAElEQVR4Ae3dC9gkVX3n8RdRQMULeEFh5q1/ve8LAz116h18NYrrBTXGG8bcxsRsFo1RNjEqiUkWo0mWVVdRN2aNMXFyMUpiEolxNS7oijeMV7wBKhcvKAhykYvCcGfmv3Oqumf67be6+5w6VdXV3V+eh6ff6a6uOvWpU9W/Pn3qnIUF/kMAAQQQQAABBBBAAAEEEEAAAQQQQAABBBBAAAEEEEAAAQQQQAABBBBAAAEEEEAAAQQQQAABBBBAAAEEEEAAAQQQQAABBBBAAAEEEEAAAQQQQAABBBBAAAEEEEAAAQQQQAABBBBAAAEEEEAAAQQQQAABBBBAAAEEEEAAAQQQQAABBBBAAAEEEEAAAQQQQAABBBBAAAEEEEAAAQQQQAABBBBAAAEEEEAAAQQQQAABBBBAAAEEEEAAAQQQQAABBBBAAAEEEEAAAQQQQAABBBBAAAEEEEAAAQQQQAABBBBAAAEEEEAAAQQQQAABBBBAAAEEEEAAAQQQQAABBBBAAAEEEEAAAQQQQAABBBBAAAEEEEAAAQQQQAABBBBAAAEEEEAAAQQQQAABBBBAAAEEEEAAAQQQQAABBBBAAAEEEEAAAQQQQAABBBBAAAEEEEAAAQQQQAABBBBAAAEEEEAAAQQQQAABBBBAAAEEEEAAAQQQQAABBBBAAAEEEEAAAQQQQAABBBBAAAEEEEAAAQQQQAABBBBAAAEEEEAAAQQQQAABBBBAAAEEEEAAAQQQQAABBBBAAAEEEEAAAQQQQAABBBBAAAEEEEAAAQQQQAABBBBAAAEEEEAAAQQQQAABBBBAAAEEEEAAAQQQQAABBBBAAAEEEEAAAQQQQAABBBBAAAEEEEAAAQQQQAABBBBAAAEEEEAAAQQQQAABBBBAAAEEEEAAAQQQQAABBBBAAAEEEEAAAQQQQAABBBBAAAEEEEAAAQQQQAABBBBAAAEEEEAAAQQQQAABBBBAAAEEEEAAAQQQQAABBBBAAAEEEEAAAQQQQAABBBBAAAEEEEAAAQQQQAABBBBAAAEEEEAAAQQQQAABBBBAAAEEEEAAAQQQQAABBBBAAAEEEEAAAQQQQAABBBBAAAEEEEAAAQQQQAABBBBAAAEEEEAAAQQQQAABBBBAAAEEEEAAAQQQQAABBBBAAAEEEEAAAQQQQAABBBBAAAEEEEAAAQQQQAABBBBAAAEEEEAAAQQQQAABBBBAAAEEEEAAAQQQQAABBBBAAAEEEEAAAQQQQAABBBBAAAEEEEAAAQQQQAABBBBAAAEEEEAAAQQQQAABBBBAAAEEEEAAAQQQQAABBBBAAAEEEEAAAQQQQAABBBBAAAEEEEAAAQQQQAABBBBAAAEEEEAAAQQQQAABBBBAAAEEEEAAAQQQQAABBBBAAAEEEEAAAQQQQAABBBBAAAEEEEAAAQQQQAABBBBAAAEEEEAAAQQQQAABBBBAAAEEEEAAAQQQQAABBBBAAAEEEEAAAQQQQAABBBBAAAEEEEAAAQQQQAABBBBAAAEEEEAAAQQQQAABBBBAAAEEEEAAAQQQQAABBBBAAAEEEEAAAQQQQAABBBBAAAEEEEAAAQQQQAABBBBAAAEEEEAAAQQQQAABBBBAAAEEEEAAAQQQQAABBBBAAAEEEEAAAQQQQAABBBBAAAEEEEAAAQQQQAABBBBAAAEEEEAAAQQQQAABBBBAAAEEWiygW7bcT49fuGeLi0jREEAAAQQQQAABBBDwF1ATPUNT+ZoaUTXRzWriP9Vt8kD/NfEOBBBAAAEEEEAAAQRaJKCrS0dpGn0oD7o27K77/3pN5WTdvrB/i4pMURBAAAEEEEAAAQQQGC9gW2/VyGlq5PaBkDsYeu2/L9RUnj5+rSyBAAIIIIAAAggggMCEBXRh4R6axieqkWscgu768Ju1BC8uTXgX2DwCCCCAAAIIIIAAAsUCmsjxauQ876C7vpvDHZrKW3Vl5f7FW+FZBBBAAAEEEEAAAQQaFtBkebOm0emBQXd9a6+RH6qRk+jf2/DBZHMIIIAAAggggAAC+wS00zlYU3m9GrnNI+x+WI1c67H8uWqi4/Ztlb8QQAABBBBAAAEEEKhZQBcW9lMTb1cjl3kE1703pnne0Ja3/Nr+vdtEat41Vo8AAggggAACCCAw7wK6delRauRzHkF36NBjum3pSDVyhse6bslGfuh0Dp7348D+I4AAAggggAACCFQsoKubjuj2093tGFDvVCM7dO2oB48riqaLT1ETfd1xvbbF94psJIiFhf3GrZvXEUAAAQQQQAABBBAYKaDHbbr3nj66p6iRm9wDaXS2ri5uHbnigRftdMPZTWpJ9CPn7STyRU3lMQOr4p8IIIAAAggggAACCLgJaBo/W418zzmAGrlEk6UT3NZevJR2Nh2aDUtmorsct7s7a3nuyMOK18izCCCAAAIIIIAAAggMCGgaPUKNfNoxcNouBjdmrcCdzgEDqyr9TzVytBo5y6MMOzWVU1XkoNIb5Y0IIIAAAggggAACsy2gRx/xoLx1Ve52DJq7stbVdPmhdcl0W5m/41geVRN9244gUVd5WC8CCCCAAAIIIIDAFAro2tq9NJWT1ciPnYNlKp/QJE6b2N1S5TPy8abK14QB20AAAQQQQAABBBAoKeDfgiqX2RESSm4u6G1tbIEO2iHejAACCCCAAAIIIFCfwDT3kS3Rx/iGqvsY13dkWDMCCCCAAAIIIIBAkMAsjYJQbhSJ6FlBgLwZAQQQQAABBBBAoJ0Ce8e5NXKtcz9dO86tiY5r5x7lpWpqnOA2G1A2BBBAAAEEEEBg7gXymczkAuegO4UzmZWaCS6Vt+ra0gPmvoIAgAACCCCAAAIITKuAri4dpWn0IY+ge4sm8t917fD7TO0+J9Fj1ci5Hvt8jZr4xbp9Yf9p3ecmyq2dzgG6belITQ+7bxPbYxsIIIAAAggggMBIATv5gqbRm9XIHY7Bb7caeY8my5tHrnhKXtSFhXuokRfsmar4h477r5rK13Q1/qkp2cXGipkF3ST+fTVyXddypybRm3Rl5f6NFYINIYAAAggggAACgwKayL87Bz3bGppEjx1cxyz8WzudgzWV1+8ZoeE2R4/b7QgQs7DvVexDdlNgIt8aYne1pvGL7JeLKrbFOhBAAAEEEEAAAWcBXV3cOiSg2CmA+/+3rZ8vmIfAomZxSVP5t4H977fY93ci73bGntEFu3Xoo05eRr6iafz4GaVgtxBAAAEEEECgjQKaRM9yDCqn2JEb2rgPdZRJO4sdNXKxg82n6tj+NKwzG7LORG9TE93l4LTvS0L+Req9ekwcTcN+UkYEEEAAAQQQmHKB7ti0g2Fk2L8vVhM9c8p3eWTx1SweokZO8+jPfM7IFc7gi6WGrFv/a0Gvft2aWW/Zcr8ZZGKXEEAAAQQQQKAtAp6BtxtUorNtC2hb9qGKcmQ3rqXxieoz7nAe4uYq8GoaPVmN15B1vXA76vHKPTcMnjQP3WWqqKusAwEEEEAAAQQ8BcoF3qxvrx3R4Y2zcPe9mqWfVhN9vcTP8jbEzUXgzYYYM/JBD6PbNI3/1vMLxOcZ+cLzBGZxBBBAAAEEEBgvEBB4ey1212kqJ0/juLTaWV5RI2d4hLjePvc/znTgtePoaiqnqpHbnZ2ysZwXl2zt64584fN+O+TdGdpZWhxfe1kCAQQQQAABBBBwEBgeeKOb1cjVziFniu6+t63S2diwXuMOR98eYjGTgbfbxeNFnnXgPE3k+KJq5z+pSXSzptGr7BjRRevjOQQQQAABBBBAwFlgeOCV7/a17rmOS6vZTG1pFDsXoMEFdWFhP8376V41JLz2t9z2/v6qmvgJmkQvHPKemQu8msqj1cjnh+xvz6X/8XrXVn7/aaujH2THbGFhvwarCptCAAEEEEAAgVkSGBV4e/tpf17WNDrdIwC17u572zfUM8St66oxD4FX05VN3eNsuxX0B9phf9+pqbxVt8kDe3XF5bHkKA+f0o5sc1k/yyCAAAIIIIAAAusEXAJv7w26NXqSGjnfMQzZkDTxu+9Lh7i1pQf09ts+znLg1bXD79Ptp2u/qAwLtwPPR2fbCSf6jXz/zoaAs4HZfRzfXVkgT+LDfLfF8ggggAACCCAwxwI+gdcy9Q3fdY17OGp+OuIsxBk5RU3WF3kgrA0LdcOHW5vFwJt18TDxdk3l+x7H8hI7WUmVp4ym8RY1cqZ7GWz/XjlVV1YOrLIcrAsBBBBAAAEEZlTAN/D2GOzP2N0JGlzv3m/k7vuSIW7shBqzFng1WXqkpvFn3EOm3KD2C0Snc0CvDlT9mA8PJ990LlMi31ITb6+6HKwPAQQQQAABBGZMoGzg7TH4330vt2StczXcfa9mcU2T6D+cA5ORG7KbrRymTJ6VwKvHbj5cjexQI7scnfJuBOnyQ3vHvM5HXVu7V3ZMjPzYsXyqJv6YpstJneVi3QgggAACCCAwxQKhgbe36yUmb7i8qrvv9Zjo4X4hLrorW/7YlYf0yj/ucdoDr22Z7QbJn7gHSfm4JnE6zqaO1/XoIx6U3RBn5G638vof0zrKzToRQAABBBBAoIUCVQVeu2vd1rnfUSM3uoUUUU3lE7o1Xi1DY8do1UT+0K+frvy/MtMiT3Pg1TT+JTXyPedjYrIxh59T5phU/R5No0eokU+7l12u0zR6iR0JouqysD4EEEAAAQQQmFKBKgNvj0A7mw7NW+eyVjeXG8a8777vlvu7zkEosL/nNAZeTaJjNJGPOBsZ2VlXd5Ne3Sj72D3el3rsy0VqomeU3R7vQwABBBBAAIEZEqgj8PZ41MjRauTDHiHFtgyfMurue/8QV80d/dMUeP27A8jubLivjjysd+za+KjHbbp3Vj+M3ORcp+w0x8nm5TbuD2VCAAEEEEAAgYYE6gy8vV2oojV2X6uxa59O8W417pW36HEaAm+pG74S+aKm8piifW7rcyVuvMsnyBgYW7mt+0e5EEAAAQQQQKBigSYCry1yyf62Z6lZMmqiV3j1CzZyjq5Gx1ZJ1fbAq8nSCWrkEueWTyOXaSK/bIdxq9KpyXWpiY5TG9idJ8uQq7LjuLBwjybLybYQQAABBBBAYMICTQXe3m52R1R4l8ewWC59gHvLfK+ucVnbGng1Wd7s3U/XyJ/Y7gG9YzLNj9m4y2l8YndWv149GPf45bI3Sk6zFWVHAAEEEEBgbgWaDrw9aN269Cg18jmP1rlRIWanptGr6wxxbQy8mh52XzXieuPebjXxP9qplnvHYJYetdM5WJP4f+7p43ubY536sR4TR7NkwL4ggAACCCCAwBCBSQVeW5x8VrToP6uJfuAYUgZDb36z1eqmI4bsXmVPtzLw2i4Jbj/nn2t//q8Mo8Ur0jSKNYnf5+YSvbbFu0LREEAAAQQQQKAqgUkG3t4+5C2V0WvUyK1uQUVs8P2CpvLo3jrqfmxl4M37Ng9+CRj8952axC+bp3FpNY1/Vo1cM7YuJfLuuuvNNK9fTfxiNXJG0P9J9PPTbEDZEUAAAQQmJ2B/iQ36DDJyxt7StyHw9gpjf27PhscysntEWLlSjZykDd941MrAm0S/N8JpMPherCZ6Zs96Fh81jbeokTOdTQi8I6uBpvJXzpbDfmlIo1eN3AgvIoAAAgggMETAzvYa+jm0d9VtCry9QmkiLx+yg5fa1uDeck0+zkDg7QXgD2pneaVJu7q3lQ1ZZ6K3qXGe6CS3IPCOPDQE3pE8vIgAAgggULPAHATe+LlDAu/5NdsOXf0MBV4b9mZiXFrbTSNr7Tdy7ZD60gv5xY8E3qH13b5A4B3Jw4sIIIAAAjULEHhrBi5a/YwF3l4AvE5TOVm3L+xftM9tfk7T6Mlq5IJSQbf38zuBd+QhJvCO5OFFBBBAAIGaBQi8NQMXrX66Am826sVVHmHwK5rGjy/a77Y9p9uWjtRE/t1j3+yNkN8sXJ7AO/LwEnhH8vAiAggggEDNAgTemoGLVj9dgVc+mo18kcqpHuPSqqbRh+ywXkX7P+nn+vbn9sLw2mu17X+0+7NNRJP4dYXvIfCOPKwE3pE8vIgAAgggULMAgbdm4KLVT1vg7e1DNhNbGp1eGPj6w+G+v22L6Gm6Zcv9euuY5KMdjUPzmdSu9tiHdS3WBN5yR5DAW86NdyGAAAIIVCNA4K3G0Wst0xp4ezupW6MnqZHzPULjRIZ/65XXPtpxltXI553LnEQ/KuqTTODtV3X/m8DrbsWSCCCAAALVCxB4qzcdu8ZpD7x2B/taS8dPyrC3xTf6kibRY8cCVbiA43jMvRvv7GM+6sTKyv2LikHgLVIZ/xyBd7wRSyCAAAII1CdA4K3PduiaZyHw9nZOt8kDs24LRu5wbD21E4GcoZ2lxd466njUtcPvo3m/Y/cZ92w/3WTz8qjyEHhH6Qx/jcA73IZXEEAAAQTqFyDw1m+8YQuzFHh7O6erS0epif+vY+i1Lam3ZIFU5KDeOqp41IWF/dTE2zWV73uU5SI10TNctk/gdVHauAyBd6MJzyCAAAIINCdA4G3Oeu+WZjHw9nZOk6UT1MglHmHzUk2jX+y9P+RRV+Of8uqna+Q6TaOX2EknXLdL4HWVWr8cgXe9B/9CAAEEEGhWgMDbrHe2tVkOvHYHdW3tXtkNX0Zu9Ai+n9KObCtzOPSY6OFqZIca2eW2vWza4B26dtSDfbdH4PUVy5cn8JZz410IIIAAAtUIEHircfRay6wH3h6GdjYdqqm8VY3c7RZEZZfaYc+S+LDeOkY9aqdzQDdY/8Rx/aom/pimy8mo9Y56jcA7Smf4awTe4Ta8ggACCCBQvwCBt37jDVuYl8Db23FNomM0kY+4h9Lo5qx/78rKgb11DD5qGj9bjXzXeZ2JfMv27R1cj++/Cby+YvnyBN5ybrwLAQQQQKAaAQJvNY5ea5m3wNvDqSKk1hGee+VzeSTwuihtXIbAu9GEZxBAAAEEmhMg8DZnvXdL8xp4LYCKHKRp9Co10c3OrbNGPqxbF/+TGnmHR/cI241ihx678pC98BX8QeAth0jgLefGuxBAAAEEqhEg8Fbj6LWWeQ68PSj/G82kf3KIcX+XvgGuV75hjwTeYTKjnyfwjvbhVQQQQACBegUIvPX6Fq6dwLuPRc3imqbxZzxae0eF3cs1jU+0Y/Hu20K1fxF4y3kSeMu58S4EEEAAgWoECLzVOHqthcC7nqvkZBH9wbeWSSzWlzL/F4G3SGX8cwTe8UYsgQACCCBQnwCBtz7boWsm8BbTZNMBGznFo39vI9MU95eWwNuv4f43gdfdiiURQAABBKoXIPBWbzp2jQTe0USarmzKxuM1YgNtf0tu39/RlzSJHjt6TdW/SuAtZ0rgLefGuxBAAAEEqhEg8Fbj6LUWAq8blxp5Q3Hgjc6us5/uqNIReEfpDH+NwDvchlcQQAABBOoXIPDWb7xhCwTeDSSFT2gif1gceOX9hW9o4EkCbzlkAm85N96FAAIIIFCNAIG3GkevtRB43bgIvG5O07AUgXcajhJlRAABBGZXgMA7gWNL4HVDJ/C6OU3DUgTeaThKlBEBBBCYXQEC7wSOLYHXDZ3A6+Y0DUsReKfhKFFGBBBAYHYFCLwTOLYEXjd0Aq+b0zQsReCdhqNEGRFAAIHZFSDwTuDYEnjd0Am8bk7TsBSBdxqOEmVEAAEEZleAwDuBY0vgdUMn8Lo5TcNSBN5pOEqUEQEEEJhdAQLvBI4tgdcNncDr5jQNSxF4p+EoUUYEEEBgdgUIvBM4tgReN3QCr5vTNCxF4J2Go0QZEUAAgdkVIPBO4NgSeN3QCbxuTtOwFIE3/Cjpysr91SyuaSrPUyN/okn0JjWyQ038j2rkDDXyTjXyZ2riP1YjP6dpFIdvlTW0UUAXFu6h20Q0iZ+qJvrtfFbK6M81jf82qwuJ/LMaeYcaOU0T+U010XHa6Rzcxn2hTO0WyK47W5cepUn8X9REr1ET/2l+3ZH3qsn+36Fp9ObsmpTGL9JUHmPf08a9IvBO4KgQeN3QCbxuTtOwFIHX/yhpRx6mJvpVTaK/USPfGTLroI55/jo10T9oGv+SbtlyP/9S8I42COj2hf2zIJHPPvlRNXLLmONeVC92qYm+pCb+I90ar7ZhvyhD+wT02JWHaCK/nIfa6Nsl6lmv7n0v+zJuv6AffcSD2rCnBN4JHAUCrxs6gdfNaRqWIvC6HSUVOajbgmtDza6AD5veh07/487sOCTRMS6l6X443KBGyv5/rct2+pfR1aXHBWyvbDlD3vee/vJX/bem8Za89VaurLgu2HpxXvZZJHKQS7k1kXcHHptXjtpOFsTL1zV7DL+qCwv7jdrGpF9TIx8PNHxLHfuQXXeS+Llq5Cw1cncNdc2u89NZK/HKyoF17IPLOgm8LkoVL0PgdQMl8Lo5TcNSBN7RR0nXjnqwpvJ6NXJjDR82/aHX/r1bjZyp6XIyqlSaRo8IK0t016j1F72miRwftk0Z3Ne6//2Bov0IfU7N0k+rkU81ZHGtJvHva6dzwKhyaxK/L6g8qZw6cv15uLd1s/wxS+PHj9rGJF/T1cWtQfuWuUTHVbkPtuVVTfTabggv7+53zK7NrnUdeViV++KyLgKvi1LFyxB43UAJvG5O07AUgbf4KKlZPCTrZ2mim8M/DH2DQnSXJvKXNmwXlY7A6+RZaeDVdPEpauSzzdcFu6/Zz9c/V1QX7HN1B958G9F/BO77O4eVf9LPaxr/r8B9u7CqfdBt8sD8uiM3BZYpJCTfpGn0aj1u072r2q9x6yHwjhOq4XUCrxsqgdfNaRqWIvBuPErdfnJXT/ADp/dhdaWa+AmDJSTwNhd4NV1+qBp5Twvqgq0Tf18UQhoJvEZ+PcwgurmNfdV1be1eauSaoH1L4t8fPEfL/LvbZeqqoLL4tej2rjPDHi/TJPr5Mvvi+x4Cr69YBcsTeN0QCbxuTtOwFIF331HKb0aL/2+LPnBs695dmsZ/sK+UCwsE3mYCb3ZjopHr2lUf5HztLK+sqw81d2mw27IjSWjorx1J9Bv95W7D3zbQBR7fOzWJDwvZFz128+GayEcCyzEstFbwfPTXunb4fUL2cdx7CbzjhGp4vW2B13b0VxO9bciJcN6khrNpW+DNhgKyd7wXfbtN5N01VJWZWSWBNz+UmkSPVVPLDUgVfOBkAe+0XqUj8NYbeG2fWU3itxdeT4quMc0/90NdXTpqb31oIPDabamRvws0+WyvzG151DT6UOA+BXWd0TR6shppw69J465TF6lZMnUdNwJvXbIj1tumwJuP6xl/ZszJ+EM1cpINfCN2q/KX2hR4NZVHq5EvDHUi8I48/gRe22Iqv6VG7hhah5oPNMUfPkn8OnswCbz1Bd68lX9SfXWd9qtXN67otfQ20aUhq3dbF/9TBefI0SMvSA2+mLWs2l9QQs7vNP7ZskVWI6fUNPJCr45U/fhjNfLEsvs76n0E3lE6Nb3WhsDb/XnDDjPjfldsIl+0Y0HWxLJhtW0IvNng7vmg/qNP6iT6mw07wBN7BeY98HY/dEbXoZAPxOrf+wICr1Mw9G5502Oih6uRbwYFoOqP94i6GX3b9ottKvDai4YauTDQ5417Lz4T/mPE59gI83V172rbB9h3N7JfbsNvlHMtY9XL3a5J/FzffR63PIF3nFANr08y8ObjfEavCugntTsbyH510xE10Kxb5YgLxfvXLVjDPzQ97L6axK/bE1Ruc7rwtrDfWA0spVc5z4E3n51o3QdY1R8ONawvurl7c0vAuhmWbPCE0WPiSI181+ma0mioHVs//77hwPvfAo2u0uMX7jno3/S/8+6CckngvniH92yiknzmxYDzd2ydqHvdd9sJc6o8ZgTeKjUd1zWpwKtp9Itq5NLAk69XyXdmA4XXOKTIJAJvdoHKplCUKzyczmrDxdWx+k1ksXkNvGrklR71qHduteUx8EYqAm//yZbNYDWdYbdXH8Pqw5hxeNdZ5bMMhnUDMPKc/nVO4u/uRCo9v7KP3t0z1ER/PcXXnX6n27TCsZUJvBM4C5oOvHYayT19Yj7pcQK4d3NI5ft1/PRgD0vTgTebunNUP92NLS7XTqJv8wSqbPAm5zHwahL9Qg2zpfV/GLT8bwJv78TRlZUDNR17r0TLj2dgi59H4M2u/0Y+6PGZVWT3wZ7/pB41tJU1jT/jW3Y18R8HuhVZTvK5G7Sz2PF1KFqewFukUvNzTQVe7Ww6VFN5q0eH9d2aRqdrsrw5C3JJ9CPnE6eG/r1NBd78pgLZ4RFO7sxc15YeUHNVmZnVz1vg7fZ/3el8/mz8MjXJD5iKtk3g7Z3A3Wl5K3INDJ6Tqmv+gffnws6f6C57c2DvGDT9mPV7bniINU3iX/O6L8etLtytJvpS1mqcRi/ZMyX1z+WjPiyuabL0yGxWwOzX4+gVWX4w0dfDjlth/b6oiiHLCLxNnwVZy2X0wiEV4pwqipMNcp3KyV7TlNrAatZPW7gvMDvfYborq/AVXWTqDrzZsEC5k8dsM9HZdorIKo7TPK1jngKvvTCrCe635xaO8i+lX1Ej56iJzlYjn9f8A8et77nbB55bWTasi8Brz3FN5flDrvclXQsDgV3XnWrkYjVyblYXUvmEGvmymugHDW1/9P74Bt58soawobQGxpZu8pqrSfQbYe7RzT5Dgmo+NXOVX7K/oIn8pp0Uxdctu9nbTldt5KIwg3V1/R2+5RhcnsA7KNLAv+ts4e3Owf4Nj0p2habxibbv6rBdVyNHq5EPe6xzp6Zyqv0Zb9g6XZ6vM/BqGj/bsz/zJZpEz3IpN8tsFJirwFvn2Kq2C5GRt2gqT9ejj3jQRun8mXzM6MUlNfICNfJPaqTKD8LRwWZv8CXwdm9Ss8MsOZp5LXe3GjlLk/hl9kv4qDv5s9bG1aXHdW+gPK+m8ozeR8/Aa2uyptGbA8t60bBzpO7nK5gi2hEbYD0AACAASURBVHma5KzLjJGvBlr1jt+XdVWeVoVPdh1K5Xndaat76w95DOqXTeCt4qh6rqOOwGsHCFfjNXvTLdlc2p3Owa7F74bE77ifVHZu9ni76/oHl6sj8OpqdGzeGub8wXJDNqRUp3PAYPn4t7vAvAReTeKn1vCTomb9P5OlE8qOha1rSw9QE79UjVzufv46nyNDPsDmO/Dmw0JlraxDfEr72i8vb7Bdz9zPwPVL6talR3WnMt7VWH0oE3iT6Jjg8iXRY9fvff3/6jYShR331aXHuZZUU3l9sJMdIzyNXl3HDdj5r17Rn1dwbbzSp9V70I/AOyjSwL+rDLxqFg/p9tO1P2e5nGD2hrT3aLqyqcyuZsOa5Xeee3QDkI+W6QZQZeC10zJqEv2Nez/d6K5sFqQRrWhl/Ob1PfMQeO0HRQXjhw6ew5dphXeb58MSxn+gRuwX3sFtVfzvOQ+8Jt5eg/HfV9kv1c5qpUY+VUM5N9alEoHXXi/VyOeCypfGf9v0dVeNvDGozLZryohfXfv3J2/sCp7Q5ie2X27/euv4W1P5lT0j19weZhO9pmzZCLxl5QLeV0XgzX8qiE9UI9d4VJ4v22FSAoq+963dwdPtjV72Z7WNF7cNz2X9gHfYoXn2rmTMH1UE3r7+zD4/K37cnhhjisfLHgJzEXjzGzoczgWX80U06w+/snJ/D2bnRe3sWZr123csy4bz2eV9Ewm81zsj1Lhg9yfm6sbbzfpqR8+so8jdoRhfVvssgGUDbxq/yO0zZmidvCmkVdDXvPvF96rAMp/iul01cmbgtmzYfYTr9kKX63a7DAm9t5T9dYPAG3r0Srw/NPDq1uhJauR8j0qeTw28fWH/EsUd+Zbu3eif9iiLcxeB0MDbPbE8ZjQK64IxEmrOX5z1wJvfkS12mLoqAq/9mfl3664yWWtvIna2xSrKXLCOOQ68JnpFda7R1zWN4trrQz6lr08DSsExH1GXygZeO8tbeB/0X6/br7d+TeOfDTv20V22Qam3vlGPmsQ/E7YtudN2wxq1jTpes0OZhnVviP66TLkIvGXUAt9TNvBqsnlZXaa53fcBdkfW3aGmVqJ+hm7/3u95nHwXj7sJrGzg7d6t6vOtN7/JTuSg/n3i7+oEZj7w5qN9+AWAfedp//tsl6OTqpMfvaasdc9kfev6y1DR3/MZeLNflaobGeH8UTcnjj66/q92r51XelzH3etKycBr90KNvCuwTJ/21yj3DjXygaCyJvLvrlsO744S/5HrtqpeLrv5tvga6FKn7NTDh/mWicDrK1bB8r6BN5vm1o564DrNra1EafQhNYtLFRTXeRXd4ZhO8Zu2ePgwX76BN+vPbOQ0j5/m8nGHKxpGzRlqDhec5cDbncbT42bOEa1giby86eqR31wVnR70IV34wTWngddEv1qR5aU+XcCqqjeaLidqxOceDZeAonbknrJlVBM/IdB0t+3rWnb7ru/L7hXJh4dzMyk6b5Lo5122p6vxTwWafLmOG9Rcym6X6Xb78fgFduC6mUavdt1WbzkCb0+iwUfXwJt/EGX9dH36A11ohyxqcHc2bEpXNx2RD0AtrjO2FU7k4Bp4u32mTlLj8ZNyDRNlbIDgib0CMx14jTwn8IOn9+HoPAzRXtiK/shvRrWDyw98qAT9e14Drx0HN9hxp/1wrujweq/G3igZ9pNzwf6HBN6Fhf00kW8Fur7BG8LzDZpmN4T2zucyj9eMGl6uvzhq5L0BHvYLQCX38/SXyffv7qg2ZZzse650teqVi8Dbk2jw0SXwdr+9+dyder3an1Vr6KdblqbEPlzXvw8ugVfTxaeokQs8Tvyx4w6X3V/eN1xgxgNv2E+YeTj6XpM31hQdqe7d3rd6nEtjPqjmL/BWMhyVrQ9J/LKiY9Tkc2rkHdXVBfurY/kWXrvfmkavCizPVXW3aAaP0pJGb3Y5xrpNHhg42sGHXbbTxDKaT5Ay5lpS8AUqP0+8+h8TeJs4ogPbGBV4S7WOGtmha0c9eGAzrfhnqVbqVL6mRp44KvBmd5n79Wf2Hne4FYAzUohZDbz5+LYSPqvZBG4cKapa2ZjT4a2T3Q+veQy80WsCQ5m1+0LZ8ZaLjmnZ53Rl5f5q5IoK9ievD6GB1/5y6Dwq0LCAtHRCWY9x77MzlQZbdRY747ZjX9fQkSuS+GdcttPEMtkkOmWvOan8lU8ZCbw+WhUtOyLw2hEMfMbHPNPeZFBRsWpdTfcudtu/1mc4kmE3T9i74e9wvLgEjTtcK8ocrXxmA6+dpbDsxXrv+6Kz21IVuuNsVzQ5xTwG3gqmlE7k+NbUBxO/OLx+d8NnYOC1Jp6TKxW1Gr6/LtvuOO9F23R97vOuZQtqFTVyVat+Cd6+sH/WPWHv9XDIl5Xi16/y+XJI4HWtYRUuNyLwup4Yl2hS3zfVCnd1w6rs+Hnd/r2u+xqyXGXjDm/YEZ7wEpjZwJvE7wsOBGn8eC/MmhfWRH4zeJ+yD6f5CrwVdWc4p+bD67X67v0RPqPvDL9eVxF4k+gXAuvmnZouP9QLwWHh7Mby4Bv94hc7bGohbzzKxrUfbl0cDrvLR29z2U6Ty4SN2BAd51pWAq+rVIXLBQTeG2dlmtsSYwn7nNy1jTtcYTWYq1XNbOA1cnXgB/A321YRbF9iNeIzUcuQc3POAm/oz8z5l4RfbV19MHJKYB3P60cVgbfTOcDr5uSi4JdEv1e1sRp5QaDRTtuFxKVcQV0ArEcDM6q57Ef/MppEjy3vF72if12j/ibwjtKp6bUS/W/u1kT+sq39dMsyZa0HqfyWGrmufGVf9/PHbdmc4p3OwWXLxPvqEZjFwNu9yWtI2FtXL0ct4zyjUj1Hpnit1dywNGeBN3is2Ohm26Wk+IhM7tnuUFuOM2qOqPcVBF6rENYamJXvG1VrqhGfyZc2Xg8SebdrmdTIG8p/XkZ32dZo1201tZzmX2R8unP2G77XtZwEXlepCpYrNc2tvYNxgsPTVLDbY1fRvePUZ/zc/sqe/z2BcYfH7hgL7BWYycAb3qqjmkTH7EVq0R+6Kk8r/6HaCz1zFnhDh81K4ve1qAqsK4oaOSe4PlQVePNxgjd+BhS15g57LpXHrNvBgH/otqUjKxjC7YmuRQg8Fue5bqfp5Up/aUjl+65lJfC6SgUul49raKeu7X0YjH38jjoOQB1YtNa8XVcXt+6ZZcp2R/C5mJ1vu0e0ZicoSKHAjAbegJaWbJgm5wt1IWqNTwa2uHTP3/kJvF2vwFZQtz6cNR72oauuZPSOigKvLaTacdT9PicGP1N2DN1ZzxeyXxWDyhJ9245m5LpZDepGZcfajre383/5ZOlj2tl0qIsfgddFKWCZ7o0MZ3kcyLmc5lZTebQa+byHU+vGHQ6oJjP/1tkMvNG/etTXwQ9cOy7pv7T5wAe2JKmaOQq8abwlqC5kgWnJtLU+aBo/Pnj/qg28oTdW/sTODBrq3b2pb9hoQhvP+aJgnEavci1HdxhEt/UWbWtWn1uNjnUxJPC6KJVYxs5/rkn8dnvRd7xQ7FIj79Q5m+ZW0yhWv/F07cl+ru0GUeKw8JYJCcxk4M3Hiw758Gll/91eFVET/6njtWuIwRwFXhM9M8xKbm/TUFG9OtB77E4b7zpzZnF9qDLwri09wHMIz41lSuMTe/tX9lGT6FmBx/1uO/a+6/Y1WXpk4PY2OsxGCH6OiyGB10XJY5msn24iL1cjdkxdt8qVxp+xFdljM1O/aDa0Siqv3/NTmf+g/S3u6zb1B6amHZjJwGvkGudzvOhakMTPrYm7ktVqGr0kaP/mqYU3iX4jyCqRb1Vy0GpcScBYqfnnYIWB1+5mBcNbfiqUS1P5t6DjbuRMnzLY4UgDt+eWSYquV61+Ln6piyOB10XJcZl8mtvo6x4Vcu6muS0189rgiUbgdayR7VlsRgPvTo9zfeMHTYU3ztRxpMNbr+aohTdv5Nh4jAevXcP//fE6jmGV6/TscrbRourAuzV6UtD5Z2S3nbGzrJEeu/IQjwmQNnrYupDGv+SzfU3lVwL3ubgcw+vldCyfxK9zcSTwuiiNWaZ7l+YZHhVxLqe5LdFPt/hkI/COqZHte3nWAm/2xc1+YIZ8UKTLSfuO1L4SqYmfELR/89TCm0avCrOSD+yTb+dfauSjQftYdeBdWNhPjXwnqEyOQanoiKiJXhG0bTsc58rKgUXrHvacVjnzXci1q23vTaI3DTPrf57A26/h+Xc2QHsqp3pNl2uHz9om4rmpqV68b3Y1x4CQ9XveMbQPIYF36urDzAXetcPvE/hhpyGtS01UgPD+gnPUwmui1wbWB+exRJs49kXbUCP/J2gfKw68toxq4j8KKpORK8r2nVbj9WtuUePNnxU5j3pOUzk5cH+LyjELzzlZEnhH1a4hr9m5mzWNT/QcHuQr9k7XIaucyaez6RbzLwQe/XSjs7Xb8qWJ/GHhyU3gnbr6MnuBd+1ehXXTp+Wjs9hp84EMm/3I3r8wR4E3kf8eVB9S+bc21wVbNjXiM9rQxhBVR+BNVzapkcDh4KJn+Np3f63cuI8+5//WeNV/u6H96h3vK/LZj1Ys6zZdMoHXs8ZpIser393ZczfNbd8Xgqs8PgQuth3y+w8HgbdfY7r/nrXAa49GcP+9lt+oqkn8VI/zt+DDf54Cb/z7QVaJfKTtZ3jwMHU1BN7uefjhIHsT/auvfQUzEZ7ru81sX1N5fti+zmjgTeK3u3gSeF2U8jtCY03i93lUttuzKQC3bLmf4yZmYjE18kQ18lUPp+vUxC+14xkOAhB4B0Wm998zGnh/7FHPNwbCJHpWm4+oBn+4zlHgNdFvB9UFI19tc12wZdPQmeTqCrxJ/NxA+zvsDWiu/nrcpnurkRuDtpnIb7pur3+5fMKIGQ2tIS3Fjn2xCbz9tang72z8Qd+f5W0/3WTzcsHqZvap0v10R1xoCLyzU11mNPBeGvShZ6LfbvMR1tCf6eepS0MqzwurC3JDq+uC7cZnxDbibPzi5vpcXYF3ZeVAtTeAuZajaLlUfsfVX5P4vwRty8itZceRVxM9I3Db5Y9fkVtrnote4XL8CLxDlPK7sO0UfHKZRwW7SFN5+pBVzuTTof10R6EQeEfpTNdrsxl44495XBsKPmjiv2jzUfT8Ratg/+aohTefKbLAwCMgHhM9vK31oTtjaNj+1RR4rZmm8tawc1EucLXf8ytm+Slws4AY/YPrtgaXU7NkAvcz7Bi2JuAOnFepPH/QqujfBN4Cle7dyZ/1qFj5NLcFP8sXrH4mnirfT9f9Z1wC70xUlWwnZjPwyg6Pa0TRB02pfnxN1YrgiQbmqYV37agHB9YFOybrzzZ1bH23s6fh59fD909O9d2u6/K6NV4NLt/WpUeN25795VaDhyOMnjxuO8Nez0aGCtv+D9VEZ8/g/8cNM+t/nsDbp2Gn+FMT/YNHhb5TjfyZmsVD+lYz83+WuHFvaD/dUVgE3lE60/XaTAbeNP6DwA/ZO3Vt6QFtPJKVtOjNUeC1x1CNhPXpNvGftrEu5PuWfS4WfWlzf67GFt6u/5eDzsdU/mqcv4YPP/dd++vxuO2Met1zdKj1xyeRfx+17ll/jcBrL1R5J/RT1MhN7ifMvuGzZr2S9Pavr5/u+pNo+M8c9gvBDp8bAnrbso8E3n6N6f57JgNv+ExPqon8chuP7J7+mq90vxYO/Ly493owP10asuuVCe3iEn27lXVhLRuC74bg+lB34A2eClt+bLPAsGNgx+tVE/0gzCH+42Hrd31e0/gzpcuQytdctzOLy8194NU0frYacb/5JLtTNd4+i5Vh2D7V2U932Dbt8wTeUTrT9dpMBt588gn7pc71C2DRcu9v45FUIxcE7tdcjcObXa/ym5uLjrHHc4trbasP3c9Ij30Ycj7UHXjN4iFqxGPM94JyJvGvDfO39+cEnhO7tLO0OGz9rs8PnZDJ7Tp0y6hQ71qGaV1ungPvlZ7jCtphSH5X19buNa0H27fc+Tfa+MWeP6F8U1flab7bKlqewFukMp3PzWLgtUdCjXwh7EMwukuP3Xx4m45q+JTCvSAxby28Sz8dVhcytx1tqgvdOv7/Ktgv1ZoDb7es/xRY1o8P81cjZwStu6KxljWJfiGoHEaeM2wfZ/35eQ68rt9Yd2kana7p8kNnvTL071+JfrrX7/l2fYp2Ogf0ryfkbwJviF673juzgTeJXxf44WOvQ6e16WipkTMr2Kf5a+HNW/xvCbS7RTvysLbUB02jR3jc0zL6M7WRwBv8pWO3msWlQX89+ogHBQ/LlsTPHVxvmX9rEh8WWMfeWWa7s/AeAu/onwE+ae/+nIUD7boP9ieXLOCPdum/sOX9dNeOerDrNlyXI/C6SrV/uRkOvGngh489l27RlgxJVV3rrm2tnK8WXnsWqpH3htcHt2lSmzjr1Ug1rbv286SJwJuPF/y9sGMQvWbQVlM5OWydcp2urBw4uN6y/1Yj3wgoz855a8DrORN4i4Pd5ZrGJ/aQ5uGxdD/d1cWtdfkQeOuSbX69sxp4raQauTDgwyf/8pjIPzd/VNZv0X4gB36Q9n8Rns/AG/5zc+amq9Gx649O8//S8BnM1teHBgKvVQqfMEUut8Nu9ourkfPCzvHoz/vXF/r3nlb3Pwkrj7wltAx1vT8bAk/koDrWT+BdH3h32m+hWhN2HQcwdJ194+le7XECXawNTItK4A09uu15/4wH3tAPn27ojX5hkkdMjbzR4xqwPsysv452X5vDFt58xJ/A4cmy1tCvTfJzyP7ioEaurbQ+NBV4j4kjNbIrqOx996GoWVwLWpc9Nzqyrcpzu4JhA2+1w7BWWaYq1qUm/uOu9VeLupaEboPAu+9C/a62/KwYelBd36/5sEru31yT6Edqh35paIINAq/rkWz/cjMdeDvysOD+ffl16CeaRMdM4mhqGv1iZX01915T5y/w2mMXeBd9/xeJd02kLuQt/Z8LDnl760H3JsaGAm9+DOSjgeV/b89ek/jtgev6Sm9dVT5qKl8LLNcHqixP6Lo0kZcPXINu0GTphND19r9/9gNvGj3ZsVJ8sg0/I/UfnLr+7s4W835HF3sBtv1039L0BBsE3rpqQPPrneXAazXVyDs9zqf+UDP496VVDF3kc4S7/XZ3VlT+vv2Z08CbtTBGd1Xk+T98jmXosrYxo5p+yL2ROvoemwy8qfxKoP/t2Y1qeYt94BjE0W+HHpei92sSvTBwH22/6t8qWnfTz6mR/zZkX3arvTF4+8L+VZRp9gNvPmj2d4Zg9l2csxPT/gzyd7Pa0mtnddIkepNXa1QafUhXl46qorL5roPA6yvW3uVnP/Bmc9zvdrzODF53Bv/9XfultImjqSa7q72GsGuvp/MZeO1x00T+uaK6YB1fGzo7l0tdsl0o1ET/Wl25+8Kube1tMvBm+yJ25KDBc8v931mLY/SrQevIxgWuZybWbp/7HwaW705NF5/iUj/qWCb7gpXIX47fh+jsshNY9Zd75gOv3VntLK/4jZcZ3axp9OpZGaA5H09XTlIj14yvWL0LRPR1TeKn9leWpv8m8DYtXt/2Zj3wWjk18T+6n1+982zo43V1fxDlPyFW1hJZECTmOPCuLh2lRu6orD6k8i/2xuK6zlDbn1MT+WJl5S0Kmg0G3vx8jN4WuD/nafDsefJPdR2zfB+rmBFRdtpfeeosZ9G6u0O9fdz9GEU/0FQeU7Qu1+fmIvBaDPsNWU28XY34DFlyhRo5afCOTVfcNizn3U/XyPXZECwN9dMdZUTgHaUzXa/NReBNljfv+WnuVvcL+NCw2wuP9hent1T9xTubItzIhyssZ6+8A4/zG3jt2alG/qxi4+9oGj++6jNfU3m+Ggn82X5sXW60hTfzz8cQHqiTDuVcH9bDfrWpudFIO52Dw6c7zkxuaXKac02in1cjV5U4P+5QE7+07DkwN4G3B6T54OCnqJGb3LGjL+nq0uN665iGx26rts/MMLWNp1vWi8BbVq5976sk8K7/IAr9ICvz/jeOk1UTvcb9uuL84Xt51l8v8EuodjYdqkbekI3724jlvAfebKrb6yquD7vVtvZuWzpyXF0c93q3MeTzFZdv+HnVcAuv3f8Kbuwavj/jzqFUvt9EY5kNqhUdw92ayP+2GWlc3Sn7uu2WoEZCZ8Ozx+Q9ZX7xmLvA2ztQdjpPNbJDjdztXFlsf9Y0invraONj9o0vn9P9duf9MtHZWuN4umWdCLxl5dr3vrkJvHk/yK+7n3vOodde5K/Ihk1MlxPXI5z180sXn6JG3lVx67NDEJjvwGuPUeVj2e4LWbb1/6xsdI2Vlfs714fshrr4pWrk/Jrq6PB6MYnAm8Qva3w/e8eowf3VVD5R3X5G386mL15Y2M+1Xo1bLrt/KB9y7CfVlVO+odtExm27//W5Dbw9hO7UiZ/yOAh3aCpvVY+LTG9bdT6WHE/3IjXRM+ssV8i6Cbwheu1677wEXqtux9ystP9m7wN0/aPtbmVHWnlDNlRgGp+Yd9mKX6xGflftjSD5h2DoVLfDA8z68hQsR+DN6kO1fbsLndXI5zSJ/qZ7t/tJWdBO4l/b87Pxf+3+6mBngLvY43OuYDteX842vr/BANi7+nV/1fBo/Ancx33nxC7fMNYrc5lH2xCnRm6s+Ph+WY28oExLam8f1GQ3875lzzWpyqCb1y17ffNsjZ77wLv3wKTxs9WI62gOqtmYtHJyVcNl9MpR5nGa++mO2l8C7yid6XptngKvPTKaxn9Q8YfPxgCx78O1pa8ReLO6sE0e6HnvSEuPZ2AYnEDgzc9F+Zfmz8Xo7Kav0N1+sWF9jouvKbb75weyL9Zblx41qrHPDqloJ6XSNP5faqK6fumy58enygRxAm9frVQ7hFk+Z7bPN6UL1UTP6FtNY3+W6qdrW6e3yQMbK2TAhgi8AXgte+vcBd7sJtnoH5r/oA0MJcUfeCUDGIG3dxpqupzU0spV6fGque5MKvAm8c80fh6m8rzesW/yMR8vv+bjmNc5O+KTbSC0rcBfVSPfVWNHe2hg20n0H7brZhlXAm+BWvYziA2GxmfInub6wZbup9tZ7BTsbmufIvC29tB4F2zeAq8FyvvPxp9p5EOgiQ8a720QePtPFNt9zOueEW/vBsJGSJkmFXgXFu6hRi5r8Dy8YVLTQmdDkNqbGkOOU7vfe45u2XK//vPK528C7wgtTeMtam9Uc68A+UgHx648ZMRqS78U0E93Ii3QpXe0+0YCb6hge94/j4HX6nfvSm7+BiH3a9bw1tvgKVUJvINnoCbRb6gRe8PZcPdWvhZ9W03gdL0TCrzZeVjP6CnFxzCJ3z543Jv8d/ZLtZEzp6+OjTknkvh9oV8kCLwONbE7G9EFHhXIzvByinY6Bzis3mkRzadIPs+rDLZ7RuBQRk6Fq2khAm9NsBNY7bwGXkvdHWD9Kx7nbvEHaZNByLYSrUbHhpWZwFt0qml2g6HH6EBNHvfibd2uZnFNbeAoft2tvk4y8OY3ddXRv7Vg3xfXio57k8/Zsbuzfrchx6tV743/oooh3gi8jrWwO8e452xlcom9c9pxE4WLzXo/3cKd7j5J4B2lM12vzXPgtUfK9pvXdGq6N5yfDSNE4K3tJOuOnTqJ0QMKAtrIlrXdauIXZ3V4igNvVn4jHrN6jTQZZXhebZXGc8XZL8LVT34yat/reM0OG3uK564PXZzAO5Sm+IXsg8vIaWrE42IVf0y3xqvFayx+dl766Rbvff4sgXeUznS9Nu+B1x4t+4tPNlxYq1pONnywf6M3Zz0tvPWeY2rveDdyeVCrad11KZGX9xSmuYU3O/9M9J9rt+7z6rlN+jGbLdbIBIcn3HCNcQ3GV9lftqv0I/CW1MyG30ij0z1OoF1ql0/iw0ZtsmQ/3YmNFDFqX0JfI/CGCrbn/QTefcciG9uynR9AX+2/PhF49x2zuv7K+3hHZ3t8jriGhdDl7taB8Db1gTf/md9nBCZfw9tt96W66krIerP7kRL5Ygvr2TDjj2tHHhayz0XvJfAWqXg8p6k8Ro34TM+4M5stSeSgwc10++n63OByXTaM2vaF/QfXNQv/JvDOwlHM94HAu/5YZgPFJ/KR1nwA2UkLjtt07/5SEnj7Ner7W+0Qdmn8IjVyQ0vqw1V2bPfBPZ72wGv3p+ZfWN47aNamf3e7Zb6y5cPj3aRJ9Ht1zW9A4K2gRmYXLBNv9xz65PLs5gV7sdu2dKQaOcPjYndnNtvb2tIDKih+a1dB4G3tofEuGIG3mEzzn1kn+bP2NbYMRaUj8Bap1PecbdFSk43dPMlRHD6ox0QPL9rLmQi8eTeSYa2KYc+n8vQit7Y91/1V4c8bmA3SzzO7UXbTEXV6EXgr1M363ZrotZ5z1tsW3Ts8wu7/sTeyVVjs1q6KwNvaQ+NdMALvcLJ8vN7oJQ3357xD0+jN9ua0YSUj8A6Tqfd57Sx2NJF/bnj4sm9oEj911J7NQuC1+6dGLvD4vHUNbZfX1So56piEvGanPlYjb1QjdlQp1/2sYbno7KJfFEL2bdh7CbzDZAKe19VNR6iRHRVfsC7UKfkGGUC37q0E3nUcU/0PAu/4w5cF36zFN+vTWVcr3w1Z0N0mMq5EBN5xQvW+nvW7zAPJD2sMJJ/NRoxwGL5yZgJvKr9TvWf02nprQ31rz4YwS6IXqsmuO3YugRpC7YZ12pv+32kDaH17tnHNTQVei/jGUXMwbyza9D+jqTxajXwusALZKfxOmrZvj6FHT408pztd4caTL4nfF7p+3t+sgBo5Oh/Peumnp/Zx29KRTallN8Xasbzzwf5D77C2Hy5nZf1E08Pu67oPdkajoGOVLj7FdVu95fKfW233sLL/y3N665qVx2z2rCR6lhp5hybyrcDPE3s9vVQT+d92bF0fozwshJy/i0s+26trghRl1gAAD6JJREFU2eB6bQoMOpsOrau8Ta5XzeIh3W5W78nqSbXh93o18T9qKr9iR7tqcr9628p/hS84fkXHdMhzvXUtaLJ0wpiT8apsppmFhXvsfdOM/5H1703klzWV74+xGQx2t2sSvWn+viTYOefH3LVM4J3xs4bd6xfIW37jJ6htmUrkL7vnx6Xdm5zsOJX9146fdL8oflDz7lXPsRf5/vXx93QLaLK8WVN5ntrZw/KuD3ZSE9sX++aBumAbmq5VI+eqif5aTfzSplvUplua0mu6/NAs1yXyh9mv1vmNthd3rz0FQ7NmdfAqNXJxd5baN2oqz9dk6ZEz12iX7dT6i2//hbj/7y/r6tLj5qk62Snxuj/R3zRwUep36f39fk02L8+Vz9FHPEizqUyju8b7RG+bJxv2FYFRAnkgXjykipmIRm2H16ZDIJs0ZO3w+0xHaSnltAvkrcKLh0z7fniXPx+twH6bXNfi0Atxg4+71d6V11la9N7QFL8hvxNXPjjE6OqmOm+3hTCb9zuRl3sMyXOH7VvYlvJTDgQQQAABBBCYQ4GsCdzIB4YEusHQa/99qxr5HzpH30izbh3FXwo+O09VRlflaWrkQo+6cpkm8c/MkxH7igACCCCAAAItFuhOonCBR5i5Mrs5aw7698574C0x7rC9aec0+iK2+ISnaAgggAACCMyrQHdmj5O6HeeLWneLnjtXk+ixs2w2r4E3u0MylVPVSEFn98JuMLuzCTmOiaNZrg/sGwIIIIAAAgjMgEDeqVlO85hgIQ86M9q/d94Cr72ZJptVzsjVHi3+c3dj4wyc6uwCAggggAACCHQH0j7TI/TcorZFUOSgWdKbp8CrRp6oqXzN45jbQdZP4o7zWarx7AsCCCCAAAJzKJAPZi7f9AhBl2cthAsL+80C1zwE3nysyOh0NWJb64u6rgw+d4em8tZ5G3d4Fuoz+4AAAggggAACQwSy4ahSOVmN/NgxENmA9EndGq8OWeXUPD3LgdeOtpG1yhu5zfm4ptGH1LRjFp6pqUQUFAEEEEAAAQSmR0DthAO2Zc/I4IxBgy2AvX/v0jQ6XZP4sOnZy/UlncXAm4/BbKcDlcucg64dkmxVnrZeh38hgAACCCCAAAIzKmAnE1Aj53iEpRvVzjW/snLgtJHMWuDtzrD3WY9jd73a1v3tC/tP27GjvAgggAACCCCAQLCApvGz1YidJ77Xojv6MZFvqYm3B2+4wRXMSuDVYzcfns2vbWSX4/Gyc7vv0LWjHtwgN5tCAAEEEEAAAQTaJ6CdzgFZC6CRmxyDlKqJP6bpctK+vdlYomkPvHrcpntnretexyc6W1cXt27U4BkEEEAAAQQQQGCOBfxbEKO7pqEFcZoDr3cLvJFLNFk6YY6rMbuOAAIIIIAAAgiMFyjdR/T4hXuOX3vzS0xj4C3dx7rTOaB5YbaIAAIIIIAAAghMoUDJUQAuUhM9o227O02Bt/QoGunyQ9vmTnkQQAABBBBAAIGpECg9zmuyebktOzgNgbfUOMmpfEKTOG2LM+VAAAEEEEAAAQSmWkDTlU3ZeLzuM3nd2ZaZvNoeeEvMhHeZnQlvqisUhUcAAQQQQAABBNoqsGf2tSdqKl9zHs0hiX406TFg2xp4NY23qJEznS2N7MxmVRM5qK31g3IhgAACCCCAAAIzIaALC/ewLYxq5GqPsPYVTePHTwKgbYFXzeIh+Wx32SgXo8c9zsdH3p21rnfkYZPwY5sIIIAAAggggMDcCminc3DW4mjkdufgm0Yf0m0iTaK1JfDq8Qv3VCMnqZFrnb0S+aKa6LgmvdgWAggggAACCCCAwICAbls6Uo2c4RzijNyqRk7TLVvuN7CqWv7ZhsCr6eJT1MgFHkZXZK3oCwv71YLCShFAAAEEEEAAAQT8Bdoa6iYZeEt8Gbgl+zLQ6RzsfwR4BwIIIIAAAggggEDtAqV+tjdybp0/208i8E5Ld4/aKwQbQAABBBBAAAEEZlVAO5sO9b4xy3aLSJY3V23SZOAtfUPf6tLjqt5v1ocAAggggAACCCDQgIAaOVqNnOXRd7XyobeaCryayqPVyBc89vWH2U1s2xf2b+BQsAkEEEAAAQQQQACBOgW6kytc6BEGL69qcoW6A+80T8pR5zFn3QgggAACCCCAwNwJlJo+18gndWu8GoJVV+Dtm3bZjjrhMp6uqh2WrUXTLoe48l4EEEAAAQQQQACBIQJ69BEPyvv3yt2OQXFXNvFCuvzQIasc+XTVgVcXFvZTE2/XVL7vWH4bhi/SVJ4+sqC8iAACCCCAAAIIIDBbAppGj1Ajn/YIjTeqkVN0ZeVAH4kqA68mS4/UNP6MR5mvz6ZWPn7hnj5lZlkEEEAAAQQQQACBGRLQNH62GvmeR4i8xLawuhJUEXj12M2Hq5EdamSXYznvzJZfO+rBruVkOQQQQAABBBBAAIEZFtDjNt07a701cpNjoFQ10dmaLifjWEICr3Y6B2QttL7lWl3cOq5cvI4AAggggAACCCAwhwK6uumIrL+ukd2OwXdsS2rZwNtteb7UsRy2n+4lmiydMIeHjV1GAAEEEEAAAQQQ8BXQrUuPUiOf9QibQ/vK+gZeXY2OVSPneGy7VN9iXxOWRwABBBBAAAEEEJgxgb2jIRi5zCN8bhgNwTXwNj16xIwdLnYHAQQQQAABBBBAoKyApofdV1M5dU8f39ucg2/feLfjAm+p8YFT+UTo+MBlPXgfAggggAACCCCAwIwKaLK8udu/122SByN3dsf7/d0hQfmz3Rngvjnk9aLtVDYD3IweJnYLAQQQQAABBBBAIFRAt0ZPUiPne4TUYRNcDHu+KOja0SNe6TsGcOi+8n4EEEAAAQQQQACBORXQhYV7aBqfqEau8Qi+RUF23HN2tIgzbOvynFKz2wgggAACCCCAAAKTFNBt8kA1ctqe1tfbawi+56qJjpvk/rFtBBBAAAEEEEAAAQQyAd22dGTWEmtkXIuty+tXZK3HCwv7wYsAAggggAACCCCAQKsE8pvQoq+XbO29NWst7nQObtVOURgEEEAAAQQQQAABBPoF9PiFe6qRkzSJfuQcfO0wZttE+tfD3wgggAACCCCAAAIItFpAO5sOzYcli+4aEXy/omn8+FbvCIVDAAEEEEAAAQQQQGCUgBo5Wo18eF3ota2/qZys2xf2H/VeXkMAAQQQQAABBBBAYGoENI2erEb+RJPohUo/3ak5bhQUAQQQQAABBBBAAAEEEEAAAQQQQAABBBBAAAEEEEAAAQQQQAABBBBAAAEEEEAAAQQQQAABBBBAAAEEEEAAAQQQQAABBBBAAAEEEEAAAQQQQAABBBBAAAEEEEAAAQQQQAABBBBAAAEEEEAAAQQQQAABBBBAAAEEEEAAAQQQQAABBBBAAAEEEEAAAQQQQAABBBBAAAEEEEAAAQQQQAABBBBAAAEEEEAAAQQQQAABBBBAAAEEEEAAAQQQQAABBBBAAAEEEEAAAQQQQAABBBBAAAEEEEAAAQQQQAABBBBAAAEEEEAAAQQQQAABBBBAAAEEEEAAAQQQQAABBBBAAAEEEEAAAQQQQAABBBBAAAEEEEAAAQQQQAABBBBAAAEEEEAAAQQQQAABBBBAAAEEEEAAAQQQQAABBBBAAAEEEEAAAQQQQAABBBBAAAEEEEAAAQQQQAABBBBAAAEEEEAAAQQQQAABBBBAAAEEEEAAAQQQQAABBBBAAAEEEEAAAQQQQAABBBBAAAEEEEAAAQQQQAABBBBAAAEEEEAAAQQQQAABBBBAAAEEEEAAAQQQQAABBBBAAAEEEEAAAQQQQAABBBBAAAEEEEAAAQQQQAABBBBAAAEEEEAAAQQQQAABBBBAAAEEEEAAAQQQQAABBBBAAAEEEEAAAQQQQAABBBBAAAEEEEAAAQQQQAABBBBAAAEEEEAAAQQQQAABBBBAAAEEEEAAAQQQQAABBBBAAAEEEEAAAQQQQAABBBBAAAEEEEAAAQQQQAABBBBAAAEEEEAAAQQQQAABBBBAAAEEEEAAAQQQQAABBBBAAAEEEEAAAQQQQAABBBBAAAEEEEAAAQQQQAABBBBAAAEEEEAAAQQQQAABBBBAAAEEEEAAAQQQQAABBBBAAAEEEEAAAQQQQAABBBBAAAEEEEAAAQQQQAABBBBAAAEEEEAAAQQQQAABBBBAAAEEEEAAAQQQQAABBBBAAAEEEEAAAQQQQAABBBBAAAEEEEAAAQQQQAABBBBAAAEEEEAAAQQQQAABBBBAAAEEEEAAAQQQQAABBBBAAAEEEEAAAQQQQAABBBBAAAEEEEAAAQQQQAABBBBAAAEEEEAAAQQQQAABBBBAAAEEEEAAAQQQQAABBBBAAAEEEEAAAQQQQAABBBBAAAEEEEAAAQQQQAABBBBAAAEEEEAAAQQQQAABBBBAAAEEEEAAAQQQQAABBBBAAAEEEEAAAQQQQAABBBBAAAEEEEAAAQQQQAABBBBAAAEEEEAAAQQQQAABBBBAAAEEEEAAAQQQQAABBBBAAAEEEEAAAQQQQAABBBBAAAEEEEAAAQQQQAABBBBAAAEEEEAAAQQQQAABBBBAAAEEEEAAAQQQQAABBBBAAAEEEEAAAQQQQAABBBBAAAEEEEAAAQQQQAABBBBAAAEEEEAAAQQQQAABBBBAAAEEEEAAAQQQQAABBBBAAAEEEEAAAQQQQAABBBBAAAEEEEAAAQQQQAABBBBAAAEEEEAAAQQQQAABBBBAAAEEEEAAAQQQQAABBBBAAAEEEEAAAQQQQAABBBBAAAEEEEAAAQQQQAABBBBAAAEEEEAAAQQQQAABBBBAAAEEEEAAAQQQQAABBBBAAAEEEEAAAQQQQAABBBBAAAEEEEAAAQQQQAABBBBAAAEEEEAAAQQQQAABBBBAAAEEEEAAAQQQQAABBBBAAAEEEEAAAQQQQAABBBBAAAEEEEAAAQQQQAABBBBAAAEEEEAAAQQQQAABBBBAAAEEEEAAAQQQQAABBBBAAAEEEEAAAQQQQAABBBBAAAEEEEAAAQQQQAABBBBAAAEEEEAAAQQQQAABBBBAAAEEEEAAAQQQQAABBBBAAAEEEEAAAQQQQAABBBBAAAEEEEAAAQQQQAABBBBAAAEEEEAAAQQQQAABBBBAAAEEEEAAAQQQQAABBBBAAAEEEEAAAQQQQAABBBBAAAEEEEAAAQQQQAABBBBAAAEEEEAAAQQQQAABBBBAAAEEEEAAAQQQQAABBBBAAAEEEEAAAQQQQAABBBBAAAEEEEAAAQQQQAABBBBAAAEEEEAAAQQQQAABBBBAAAEEEEAAAQQQQAABBBBAAAEEEEAAAQQQQAABBKoV+P/M4j0V9i8eqAAAAABJRU5ErkJggg==;" vertex="1" parent="1">
          <mxGeometry x="342.24" y="380" width="105.53" height="60" as="geometry" />
        </mxCell>
        <mxCell id="hFevKYK4maq2fZfGWqbk-18" value="" style="edgeStyle=orthogonalEdgeStyle;rounded=0;orthogonalLoop=1;jettySize=auto;html=1;" edge="1" parent="1" source="hFevKYK4maq2fZfGWqbk-15" target="hFevKYK4maq2fZfGWqbk-17">
          <mxGeometry relative="1" as="geometry" />
        </mxCell>
        <mxCell id="hFevKYK4maq2fZfGWqbk-15" value="Routes / EndPoins" style="whiteSpace=wrap;html=1;verticalAlign=top;labelBackgroundColor=default;" vertex="1" parent="1">
          <mxGeometry x="335" y="460" width="120" height="30" as="geometry" />
        </mxCell>
        <mxCell id="hFevKYK4maq2fZfGWqbk-20" value="" style="edgeStyle=orthogonalEdgeStyle;rounded=0;orthogonalLoop=1;jettySize=auto;html=1;" edge="1" parent="1" source="hFevKYK4maq2fZfGWqbk-17" target="hFevKYK4maq2fZfGWqbk-19">
          <mxGeometry relative="1" as="geometry" />
        </mxCell>
        <mxCell id="hFevKYK4maq2fZfGWqbk-17" value="Request Validation&lt;div&gt;&lt;br&gt;&lt;/div&gt;" style="rhombus;whiteSpace=wrap;html=1;verticalAlign=middle;labelBackgroundColor=default;" vertex="1" parent="1">
          <mxGeometry x="321.25" y="520" width="147.5" height="125" as="geometry" />
        </mxCell>
        <mxCell id="hFevKYK4maq2fZfGWqbk-34" style="edgeStyle=orthogonalEdgeStyle;rounded=0;orthogonalLoop=1;jettySize=auto;html=1;entryX=0;entryY=0.5;entryDx=0;entryDy=0;" edge="1" parent="1" source="hFevKYK4maq2fZfGWqbk-19" target="hFevKYK4maq2fZfGWqbk-3">
          <mxGeometry relative="1" as="geometry">
            <Array as="points">
              <mxPoint x="190" y="710" />
              <mxPoint x="190" y="325" />
            </Array>
          </mxGeometry>
        </mxCell>
        <mxCell id="hFevKYK4maq2fZfGWqbk-35" value="API RESPONSE" style="edgeLabel;html=1;align=center;verticalAlign=middle;resizable=0;points=[];" vertex="1" connectable="0" parent="hFevKYK4maq2fZfGWqbk-34">
          <mxGeometry x="-0.0103" y="-2" relative="1" as="geometry">
            <mxPoint as="offset" />
          </mxGeometry>
        </mxCell>
        <mxCell id="hFevKYK4maq2fZfGWqbk-19" value="Controller" style="whiteSpace=wrap;html=1;labelBackgroundColor=default;" vertex="1" parent="1">
          <mxGeometry x="335" y="680" width="120" height="60" as="geometry" />
        </mxCell>
        <mxCell id="hFevKYK4maq2fZfGWqbk-21" value="Repositories" style="whiteSpace=wrap;html=1;labelBackgroundColor=default;" vertex="1" parent="1">
          <mxGeometry x="550" y="680" width="120" height="60" as="geometry" />
        </mxCell>
        <mxCell id="hFevKYK4maq2fZfGWqbk-23" value="Models" style="whiteSpace=wrap;html=1;labelBackgroundColor=default;" vertex="1" parent="1">
          <mxGeometry x="550" y="782.5" width="120" height="60" as="geometry" />
        </mxCell>
        <mxCell id="hFevKYK4maq2fZfGWqbk-26" value="" style="endArrow=classic;startArrow=classic;html=1;rounded=0;" edge="1" parent="1" source="hFevKYK4maq2fZfGWqbk-21" target="hFevKYK4maq2fZfGWqbk-23">
          <mxGeometry width="50" height="50" relative="1" as="geometry">
            <mxPoint x="360" y="830" as="sourcePoint" />
            <mxPoint x="410" y="780" as="targetPoint" />
          </mxGeometry>
        </mxCell>
        <mxCell id="hFevKYK4maq2fZfGWqbk-27" value="" style="endArrow=classic;startArrow=classic;html=1;rounded=0;" edge="1" parent="1" source="hFevKYK4maq2fZfGWqbk-21" target="hFevKYK4maq2fZfGWqbk-19">
          <mxGeometry width="50" height="50" relative="1" as="geometry">
            <mxPoint x="420" y="770" as="sourcePoint" />
            <mxPoint x="515" y="770" as="targetPoint" />
          </mxGeometry>
        </mxCell>
        <mxCell id="hFevKYK4maq2fZfGWqbk-29" value="DB" style="shape=cylinder3;whiteSpace=wrap;html=1;boundedLbl=1;backgroundOutline=1;size=15;" vertex="1" parent="1">
          <mxGeometry x="580" y="890" width="60" height="80" as="geometry" />
        </mxCell>
        <mxCell id="hFevKYK4maq2fZfGWqbk-31" value="" style="endArrow=classic;startArrow=classic;html=1;rounded=0;exitX=0.5;exitY=0;exitDx=0;exitDy=0;exitPerimeter=0;entryX=0.5;entryY=1;entryDx=0;entryDy=0;" edge="1" parent="1" source="hFevKYK4maq2fZfGWqbk-29" target="hFevKYK4maq2fZfGWqbk-23">
          <mxGeometry width="50" height="50" relative="1" as="geometry">
            <mxPoint x="450" y="860" as="sourcePoint" />
            <mxPoint x="500" y="810" as="targetPoint" />
          </mxGeometry>
        </mxCell>
        <mxCell id="hFevKYK4maq2fZfGWqbk-39" value="Pode ser Mibile&lt;br&gt;Web&lt;br&gt;Services" style="ellipse;shape=cloud;whiteSpace=wrap;html=1;" vertex="1" parent="1">
          <mxGeometry x="630" y="260" width="120" height="110" as="geometry" />
        </mxCell>
      </root>
    </mxGraphModel>
  </diagram>
</mxfile>
